# xmcd
#
# Track frame offsets: 
#        150
#        18429
#        27552
#        43891
#        61490
#        78162
#        95165
#        115665
#
# Disc length: 1797 seconds
#
# Revision: 0
# Processed by: cddbd v1.5.1PL0 Copyright (c) Steve Scherf et al.
# Submitted via: ExactAudioCopy v0.95a5
#
DISCID=65070308
DTITLE=Wagons - Wretched Soul
DYEAR=2000
DGENRE=Alternative
TTITLE0=Lightning
TTITLE1=Travelling Man
TTITLE2=Man Sold
TTITLE3=Trying To Get Home
TTITLE4=Chains
TTITLE5=High Rollin'
TTITLE6=Send Message
TTITLE7=Yr Dead
EXTD=
EXTT0=
EXTT1=
EXTT2=
EXTT3=
EXTT4=
EXTT5=
EXTT6=
EXTT7=
PLAYORDER=
